<svg width="19" height="24" viewBox="0 0 19 24" fill="none" xmlns="http://www.w3.org/2000/svg">
<path fill-rule="evenodd" clip-rule="evenodd" d="M19 19.315C19 19.4921 18.9725 19.6542 18.8995 19.7989C18.7912 20.0139 18.6342 20.1887 18.4159 20.2955C18.3231 20.3409 18.1565 20.399 18.0198 20.399H0.979435C0.750208 20.399 0.52973 20.2922 0.368908 20.1518L0.2467 20.029C0.187235 19.9625 0.142853 19.8844 0.102877 19.8052C-0.0298252 19.5421 -0.0300713 19.2224 0.0786648 18.9514C0.12356 18.8395 0.166351 18.7421 0.210678 18.6309C0.297073 18.4142 0.385807 18.2107 0.471933 17.9967L0.994253 16.7281C1.37613 15.7699 1.78912 14.8287 2.17101 13.8705C2.19424 13.8122 2.21247 13.7684 2.23693 13.7102C2.26098 13.6529 2.2895 13.6125 2.28995 13.5369C2.29902 11.9721 2.29043 10.4069 2.2895 8.8421C2.28945 8.75622 2.2995 8.70293 2.29906 8.62541C2.29735 8.32879 2.32306 8.06131 2.35716 7.77858C2.40221 7.40524 2.49857 7.03105 2.59847 6.67193C2.63029 6.55754 2.6693 6.45071 2.70764 6.33808C2.72751 6.2797 2.74956 6.22742 2.76908 6.17329C2.89593 5.82129 3.0829 5.44093 3.27726 5.11674C3.47058 4.79427 3.67969 4.4842 3.91787 4.19264C3.98495 4.11052 4.05078 4.02346 4.12485 3.9472L4.45018 3.6033C4.49193 3.5614 4.52709 3.53622 4.56802 3.49491C4.68206 3.37982 4.80447 3.28124 4.92639 3.17465C5.40834 2.75328 6.27758 2.23874 6.90641 2.01595C7.01119 1.97883 6.96082 1.98202 7.0549 1.71198C7.09459 1.59809 7.14272 1.5009 7.19363 1.39825C7.26778 1.2487 7.35285 1.11819 7.45656 0.991949L7.72054 0.699811L7.90461 0.544563C7.94634 0.51026 7.98918 0.480321 8.03489 0.448635L8.31199 0.282731C8.63282 0.12354 8.98837 0 9.38652 0C9.68459 0 9.91069 0.010367 10.1917 0.0901845C10.6526 0.221084 11.0484 0.465748 11.3824 0.803433C11.5338 0.956455 11.7068 1.19869 11.8025 1.39195C11.8975 1.58386 11.9601 1.7559 12.0193 1.95753C12.0317 1.99984 12.0401 1.99671 12.079 2.01096C12.2985 2.0915 12.5005 2.18412 12.701 2.28436C13.1803 2.52408 13.5248 2.76123 13.9361 3.06633C13.9826 3.10081 14.0186 3.13413 14.0613 3.16732L14.2444 3.3236C14.2741 3.34659 14.2783 3.3524 14.3038 3.37723L14.4171 3.48075C14.4372 3.50089 14.4528 3.51885 14.4737 3.53724C14.4985 3.5591 14.5099 3.56376 14.535 3.58903C14.573 3.62716 14.6133 3.66304 14.6479 3.70235C14.9251 4.01719 15.1051 4.18999 15.3582 4.5568C15.4216 4.64876 15.4838 4.73 15.5429 4.82453C15.6012 4.91785 15.6549 5.00565 15.7112 5.09922C15.8538 5.33598 15.9854 5.58505 16.0917 5.84041C16.2821 6.29773 16.4341 6.70494 16.5378 7.19473C16.607 7.52149 16.6642 7.82093 16.6816 8.17264L16.6963 8.37475C16.7131 8.48529 16.7003 12.2542 16.7003 12.6316C16.7003 12.9277 16.693 13.2327 16.6998 13.5276C16.7012 13.592 16.9262 14.1137 16.9545 14.1778C16.977 14.2286 16.9937 14.2784 17.0175 14.3315L17.216 14.8118C17.3019 15.028 17.3911 15.2299 17.4772 15.446C17.5637 15.6629 17.6529 15.8659 17.7384 16.0803C17.8231 16.2929 17.9163 16.5055 18.0023 16.7213C18.299 17.4657 18.6195 18.2002 18.9179 18.9446C18.9602 19.0503 19 19.1718 19 19.315ZM9.62214 24C9.23175 24 9.17467 24.0048 8.77928 23.9192C8.35151 23.8266 7.96128 23.6255 7.61592 23.3671C7.43799 23.2339 7.23319 23.0355 7.0908 22.8554C6.95655 22.6856 6.92223 22.6299 6.81161 22.4465C6.69004 22.2449 6.57113 21.943 6.51183 21.7188C6.49109 21.6404 6.45535 21.5193 6.45535 21.4265H12.5439C12.5439 21.5193 12.5087 21.636 12.4893 21.7113C12.4657 21.8035 12.4385 21.8817 12.4085 21.9698C12.2912 22.3149 12.0143 22.7731 11.7546 23.0314C11.6992 23.0864 11.6375 23.157 11.5798 23.2053C11.4498 23.314 11.3357 23.4092 11.1906 23.5042C10.7665 23.782 10.1569 24 9.62214 24Z" fill="white"/>
</svg>
