<svg width="661" height="205" viewBox="0 0 661 205" fill="none" xmlns="http://www.w3.org/2000/svg">
<path d="M12.8584 77H3.30859L25.2656 23.085H32.2588L54.1406 77H44.3652L38.0488 61.5098H19.1748L12.8584 77ZM28.6494 38.0488L22.6338 52.9751H34.665L28.6494 38.0488ZM65.5929 77H56.9078V23.085H76.8346C81.5468 23.085 85.269 23.7868 88.0011 25.1904C90.9838 26.7445 93.0893 28.7998 94.3175 31.3564C95.4955 33.9131 96.0846 36.8833 96.0846 40.2671C96.0846 42.3475 95.7337 44.5031 95.0318 46.7339C94.5305 48.313 93.6407 49.8044 92.3624 51.208C91.0841 52.6117 89.6052 53.7396 87.9259 54.5918C85.0685 56.0205 81.3714 56.7349 76.8346 56.7349H65.5929V77ZM65.5929 31.7324V48.125H77.7745C81.033 48.125 83.3891 47.5109 84.8429 46.2827C86.2966 45.0295 87.0235 43.0243 87.0235 40.2671C87.0235 37.2091 86.2966 35.0285 84.8429 33.7251C83.3891 32.3966 81.033 31.7324 77.7745 31.7324H65.5929ZM134.72 77H98.8518V23.085H132.878V31.6572H107.65V45.1172H127.426V53.6519H107.65V68.4653H134.72V77ZM175.987 77H165.986L157.677 56.5093H146.511V77H137.487V23.085H156.361C162.903 23.085 167.879 24.5137 171.287 27.3711C174.721 30.2035 176.438 34.3517 176.438 39.8159C176.438 43.4754 175.611 46.6086 173.957 49.2153C172.303 51.797 169.946 53.7145 166.888 54.9678L175.987 77ZM146.511 31.8828V47.749H157.903C161.211 47.749 163.605 47.1224 165.084 45.8691C166.563 44.5908 167.302 42.5731 167.302 39.8159C167.302 36.9334 166.487 34.8906 164.858 33.6875C163.229 32.4844 160.397 31.8828 156.361 31.8828H146.511ZM206.539 77H197.779V31.582H179.205V23.085H225.112V31.582H206.539V77ZM263.71 77H227.842V23.085H261.868V31.6572H236.64V45.1172H256.416V53.6519H236.64V68.4653H263.71V77ZM301.052 77H291.502L313.459 23.085H320.452L342.334 77H332.559L326.242 61.5098H307.368L301.052 77ZM316.843 38.0488L310.827 52.9751H322.859L316.843 38.0488ZM405.995 77H370.126V23.085H378.924V68.4653H405.995V77ZM443.878 77H408.01V23.085H442.036V31.6572H416.808V45.1172H436.584V53.6519H416.808V68.4653H443.878V77ZM473.979 77H465.218V31.582H446.645V23.085H492.552V31.582H473.979V77ZM533.781 77H523.78L515.471 56.5093H504.305V77H495.281V23.085H514.155C520.697 23.085 525.673 24.5137 529.082 27.3711C532.516 30.2035 534.233 34.3517 534.233 39.8159C534.233 43.4754 533.405 46.6086 531.751 49.2153C530.097 51.797 527.741 53.7145 524.683 54.9678L533.781 77ZM504.305 31.8828V47.749H515.697C519.006 47.749 521.399 47.1224 522.878 45.8691C524.357 44.5908 525.096 42.5731 525.096 39.8159C525.096 36.9334 524.282 34.8906 522.653 33.6875C521.023 32.4844 518.191 31.8828 514.155 31.8828H504.305ZM546.55 77H537L558.957 23.085H565.95L587.832 77H578.056L571.74 61.5098H552.866L546.55 77ZM562.341 38.0488L556.325 52.9751H568.356L562.341 38.0488Z" fill="white"/>
<path fill-rule="evenodd" clip-rule="evenodd" d="M189.595 169.819L160.009 169.975V169.989L189.716 170.145C189.795 170.145 189.864 170.111 189.899 170.057L197.509 157.608L204.709 178.079C204.761 178.208 204.892 178.31 205.074 178.33C205.318 178.358 205.552 178.228 205.587 178.038C205.587 178.032 211.834 146.156 214.527 132.411L218.164 203.94C218.181 204.308 218.512 204.641 218.998 204.73C219.581 204.838 220.163 204.553 220.293 204.097L231.835 165.365L237.468 173.826C237.807 174.336 238.641 174.513 239.258 174.207L245.843 170.996L301.855 171.043C302.351 171.043 302.829 170.819 303.055 170.445L309.391 159.955L315.944 178.283C316.318 179.385 318.43 179.283 318.63 178.147L326.305 137.992L327.782 165.076L329.964 203.961C330.042 205.24 332.38 205.376 332.745 204.158L344.02 165.605L349.537 173.853C349.893 174.391 350.78 174.581 351.432 174.255L357.997 171.036L413.994 170.989C414.472 170.989 414.924 170.778 415.141 170.417L421.571 159.715L428.292 178.235C428.622 179.167 430.369 179.092 430.569 178.119L438.759 134.01C439.932 153.744 442.928 203.94 442.928 203.94C442.937 204.138 443.119 204.315 443.38 204.362C443.693 204.417 444.006 204.26 444.075 204.015L455.769 163.258L462.658 173.445C462.719 173.534 462.858 173.568 462.971 173.513L469.825 170.106C469.92 170.141 479.366 170.081 486.421 170.036C487.123 170.032 487.803 170.027 488.446 170.023C488.502 171.355 489.599 172.417 490.944 172.417C492.298 172.417 493.401 171.34 493.443 169.996C493.795 169.997 493.991 169.997 494 169.996C494.001 169.994 493.804 169.994 493.443 169.995C493.444 169.969 493.444 169.943 493.444 169.917C493.444 168.536 492.325 167.417 490.944 167.417C489.564 167.417 488.444 168.536 488.444 169.917C488.444 169.934 488.444 169.951 488.445 169.968C487.822 169.964 487.167 169.96 486.488 169.955C479.349 169.91 469.69 169.848 469.646 169.887L462.931 173.123L455.913 162.47C455.809 162.28 455.383 162.314 455.348 162.525L443.917 200.545L440.198 126.258L440.199 126.253L440.198 126.253L440.19 126.103C440.173 125.756 439.843 125.45 439.382 125.396C438.86 125.334 438.374 125.62 438.296 126.028L429.067 173.623L423.051 156.667C422.816 155.816 421.138 155.7 420.721 156.51C420.714 156.516 414.695 166.478 413.175 168.995L357.594 168.948C357.36 168.948 357.107 168.995 356.89 169.104L351.226 171.866L344.705 162.069C344.531 161.804 344.209 161.593 343.809 161.525C343.088 161.395 342.358 161.749 342.193 162.321L332.345 195.691L330.702 164.954L328.556 126.069C328.469 124.695 325.939 124.634 325.679 125.954L316.873 172.811L311.042 156.626C310.755 155.714 309.008 155.585 308.522 156.462L301.032 168.928L245.49 168.975C245.256 168.975 245.021 169.023 244.812 169.125L239.085 171.932L232.505 162.096C232.34 161.851 232.044 161.661 231.671 161.593C230.993 161.47 230.332 161.804 230.176 162.327L219.961 197.602C218.876 179.139 215.756 126.083 215.756 126.083C215.739 125.804 215.47 125.559 215.096 125.518C214.679 125.471 214.287 125.702 214.227 126.028L205.008 176.283C203.224 171.384 197.867 156.814 197.721 156.701C197.574 156.646 197.391 156.701 197.321 156.816L189.595 169.819Z" fill="url(#paint0_linear_1_20)"/>
<path d="M102.894 112H100.074V94.4951H106.544C108.074 94.4951 109.282 94.723 110.169 95.1787C111.138 95.6833 111.821 96.3506 112.22 97.1807C112.603 98.0107 112.794 98.9751 112.794 100.074C112.794 100.749 112.68 101.449 112.452 102.173C112.289 102.686 112 103.17 111.585 103.626C111.17 104.082 110.69 104.448 110.145 104.725C109.217 105.188 108.017 105.42 106.544 105.42H102.894V112ZM102.894 97.3027V102.625H106.849C107.907 102.625 108.672 102.426 109.144 102.027C109.616 101.62 109.852 100.969 109.852 100.074C109.852 99.0809 109.616 98.3729 109.144 97.9497C108.672 97.5184 107.907 97.3027 106.849 97.3027H102.894ZM136.402 112H133.302L140.431 94.4951H142.701L149.806 112H146.632L144.581 106.971H138.453L136.402 112ZM141.529 99.3535L139.576 104.2H143.482L141.529 99.3535ZM186.329 112H183.082L180.384 105.347H176.759V112H173.829V94.4951H179.957C182.081 94.4951 183.696 94.959 184.803 95.8867C185.918 96.8063 186.476 98.1532 186.476 99.9272C186.476 101.115 186.207 102.133 185.67 102.979C185.133 103.817 184.368 104.44 183.375 104.847L186.329 112ZM176.759 97.3516V102.503H180.458C181.532 102.503 182.309 102.299 182.789 101.893C183.269 101.478 183.509 100.822 183.509 99.9272C183.509 98.9914 183.245 98.3281 182.716 97.9375C182.187 97.5469 181.267 97.3516 179.957 97.3516H176.759ZM213.6 112H210.499L217.628 94.4951H219.898L227.003 112H223.829L221.778 106.971H215.65L213.6 112ZM218.727 99.3535L216.773 104.2H220.68L218.727 99.3535ZM294.776 112H291.529L288.832 105.347H285.206V112H282.276V94.4951H288.404C290.528 94.4951 292.144 94.959 293.25 95.8867C294.365 96.8063 294.923 98.1532 294.923 99.9272C294.923 101.115 294.654 102.133 294.117 102.979C293.58 103.817 292.815 104.44 291.822 104.847L294.776 112ZM285.206 97.3516V102.503H288.905C289.979 102.503 290.756 102.299 291.236 101.893C291.716 101.478 291.957 100.822 291.957 99.9272C291.957 98.9914 291.692 98.3281 291.163 97.9375C290.634 97.5469 289.715 97.3516 288.404 97.3516H285.206ZM330.592 112H318.946V94.4951H329.994V97.2783H321.803V101.648H328.224V104.419H321.803V109.229H330.592V112ZM363.49 112H360.646V97.2539H354.615V94.4951H369.52V97.2539H363.49V112ZM403.639 111.524C402.613 111.972 401.523 112.195 400.367 112.195C399.212 112.195 398.117 111.972 397.083 111.524C396.05 111.076 395.163 110.462 394.422 109.681C393.682 108.899 393.096 107.959 392.665 106.861C392.233 105.762 392.018 104.59 392.018 103.345C392.018 102.1 392.233 100.928 392.665 99.8296C393.096 98.731 393.682 97.791 394.422 97.0098C395.163 96.2285 396.05 95.6141 397.083 95.1665C398.117 94.7189 399.212 94.4951 400.367 94.4951C401.523 94.4951 402.613 94.7189 403.639 95.1665C404.664 95.6141 405.547 96.2285 406.288 97.0098C407.028 97.791 407.614 98.731 408.045 99.8296C408.477 100.928 408.692 102.1 408.692 103.345C408.692 104.59 408.477 105.762 408.045 106.861C407.614 107.959 407.028 108.899 406.288 109.681C405.547 110.462 404.664 111.076 403.639 111.524ZM396.424 107.703C397.482 108.834 398.805 109.4 400.392 109.4C401.979 109.4 403.297 108.83 404.347 107.691C405.396 106.552 405.921 105.103 405.921 103.345C405.921 101.596 405.392 100.151 404.334 99.0117C403.277 97.8724 401.962 97.3027 400.392 97.3027C398.805 97.3027 397.482 97.8724 396.424 99.0117C395.366 100.143 394.837 101.587 394.837 103.345C394.837 105.111 395.366 106.564 396.424 107.703ZM445.216 112H441.969L439.271 105.347H435.646V112H432.716V94.4951H438.844C440.968 94.4951 442.583 94.959 443.69 95.8867C444.805 96.8063 445.362 98.1532 445.362 99.9272C445.362 101.115 445.094 102.133 444.557 102.979C444.02 103.817 443.255 104.44 442.262 104.847L445.216 112ZM435.646 97.3516V102.503H439.344C440.418 102.503 441.196 102.299 441.676 101.893C442.156 101.478 442.396 100.822 442.396 99.9272C442.396 98.9914 442.132 98.3281 441.603 97.9375C441.074 97.5469 440.154 97.3516 438.844 97.3516H435.646ZM472.206 112H469.386V94.4951H471.791L480.506 106.727V94.4951H483.338V112H480.885L472.206 100.098V112ZM510.45 112H507.35L514.479 94.4951H516.749L523.854 112H520.68L518.629 106.971H512.501L510.45 112ZM515.577 99.3535L513.624 104.2H517.53L515.577 99.3535ZM560.377 112H557.13L554.432 105.347H550.807V112H547.877V94.4951H554.005C556.129 94.4951 557.744 94.959 558.851 95.8867C559.966 96.8063 560.523 98.1532 560.523 99.9272C560.523 101.115 560.255 102.133 559.718 102.979C559.181 103.817 558.416 104.44 557.423 104.847L560.377 112ZM550.807 97.3516V102.503H554.505C555.58 102.503 556.357 102.299 556.837 101.893C557.317 101.478 557.557 100.822 557.557 99.9272C557.557 98.9914 557.293 98.3281 556.764 97.9375C556.235 97.5469 555.315 97.3516 554.005 97.3516H550.807Z" fill="#4154F6"/>
<rect x="608" y="22" width="53" height="55" rx="3" fill="#4154F6"/>
<path d="M648.475 69H623.32V31.1895H647.183V37.2012H629.49V46.6406H643.359V52.626H629.49V63.0146H648.475V69Z" fill="white"/>
<defs>
<linearGradient id="paint0_linear_1_20" x1="494" y1="165" x2="160" y2="165" gradientUnits="userSpaceOnUse">
<stop stop-color="#1E213E" stop-opacity="0"/>
<stop offset="0.135029" stop-color="#535BAB" stop-opacity="0.35"/>
<stop offset="0.859671" stop-color="#535BAB" stop-opacity="0.35"/>
<stop offset="1" stop-color="#1E213E" stop-opacity="0"/>
</linearGradient>
</defs>
</svg>
