<svg width="938" height="287" viewBox="0 0 938 287" fill="none" xmlns="http://www.w3.org/2000/svg">
<path d="M0.99997 110.751L84.3685 110.366L83.8564 110.584L105.68 78.3476C105.875 78.0628 106.387 77.9288 106.802 78.0628C107.289 78.3979 128.698 129.667 128.845 130.187L126.406 130.287L153.107 2.53264C153.277 1.72841 154.375 1.15875 155.545 1.27604C156.594 1.37657 157.35 1.97973 157.398 2.66668C157.398 2.66668 170.224 194.139 170.224 194.156L164.25 193.771L197.851 91.9189C198.29 90.6288 200.143 89.8078 202.045 90.1094C203.094 90.277 203.923 90.7461 204.386 91.3493L224.625 117.905L219.602 116.967L238.914 108.657C239.499 108.406 240.157 108.288 240.816 108.288L398.994 108.171L395.629 109.645L417.648 77.4764C419.013 75.315 423.914 75.6334 424.719 77.8785L445.982 129.684L438.447 130.019L465.781 2.34834C466.513 -0.902073 473.609 -0.751281 473.852 2.63317L479.875 98.3863L485.703 194.139L477.9 193.653L512.111 91.9022C512.574 90.4948 514.622 89.6235 516.646 89.9419C517.768 90.1094 518.67 90.6288 519.158 91.2823L539.323 117.872L534.008 116.883L553.344 108.607C553.954 108.339 554.661 108.221 555.319 108.221L713.497 108.339L710.279 109.746C710.279 109.746 732.395 77.6104 732.419 77.5937C733.59 75.5999 738.296 75.8847 738.954 77.979L759.924 129.852L753.536 130.136L781.724 2.53264C781.943 1.52736 783.308 0.823661 784.772 0.974453C786.064 1.10849 786.99 1.86245 787.039 2.71694L797.963 194.257L794.745 194.056L829.565 92.4048C829.662 91.8854 830.857 91.8017 831.15 92.2708L851.144 118.911L850.267 118.743L869.676 110.533C869.871 110.383 937.732 110.852 938 110.801C938.049 110.751 869.091 111.22 870.188 111.07L850.949 119.464C850.632 119.598 850.242 119.514 850.072 119.296L829.662 92.8069L831.247 92.6729L797.939 194.575C797.744 195.178 796.866 195.563 795.988 195.429C795.257 195.312 794.745 194.877 794.72 194.391C794.72 194.391 781.699 2.918 781.724 2.90124L787.064 3.08554L760.046 130.807C759.485 133.203 754.584 133.387 753.658 131.091L732.249 79.3027L738.784 79.6713L716.765 111.84C716.155 112.728 714.887 113.248 713.546 113.248L555.368 113.365L557.343 112.98L538.031 121.29C536.202 122.094 533.715 121.625 532.715 120.301L512.477 93.7452L519.523 93.1253L485.606 194.927C484.581 197.926 478.022 197.591 477.803 194.441L471.682 98.6878L465.733 2.93475L473.804 3.21958L446.006 130.874C445.445 133.672 439.52 133.923 438.471 131.209L417.355 79.3697L424.426 79.7718L402.31 111.907C401.676 112.829 400.335 113.382 398.945 113.382L240.767 113.264L242.669 112.896L223.332 121.173C221.601 121.927 219.26 121.491 218.309 120.234L198.144 93.6447L204.654 93.075L170.127 194.776C169.761 195.899 168.127 196.602 166.493 196.334C165.128 196.116 164.201 195.295 164.153 194.391L153.058 2.86773L157.35 3.01853C157.35 3.01853 128.869 130.589 128.869 130.606C128.772 131.075 128.113 131.393 127.43 131.326C126.918 131.276 126.553 131.024 126.406 130.706L105.607 78.8L107.192 78.8838L84.8562 110.952C84.7586 111.086 84.5636 111.17 84.3441 111.17L0.975586 110.785H0.99997V110.751Z" fill="url(#paint0_linear_43_86)"/>
<path d="M129.867 252.835H98.2617V134.667H132.755C153.22 134.667 169.091 139.811 180.369 150.098C191.646 160.386 197.285 174.964 197.285 193.833C197.285 212.263 191.316 226.704 179.378 237.156C167.496 247.609 150.992 252.835 129.867 252.835ZM117.324 233.773L130.032 233.938C145.38 234.103 157.263 230.72 165.68 223.788C174.152 216.801 178.388 206.817 178.388 193.833C178.388 180.025 174.62 169.793 167.083 163.136C159.546 156.48 148.159 153.151 132.92 153.151H117.324V233.773ZM244.618 254.32C237.027 254.32 230.067 252.395 223.741 248.544C217.414 244.693 212.436 239.467 208.805 232.865C205.174 226.209 203.359 218.947 203.359 211.08C203.359 199.087 207.32 188.992 215.241 180.795C223.218 172.598 233.011 168.5 244.618 168.5C252.87 168.5 260.297 170.673 266.899 175.019C273.5 179.31 278.479 185.196 281.835 192.678C285.245 200.16 286.456 208.329 285.466 217.187H222.668C223.053 221.808 225.309 226.154 229.435 230.225C233.616 234.241 238.732 236.249 244.783 236.249C250.065 236.249 254.686 234.873 258.647 232.123C262.608 229.317 265.523 225.906 267.394 221.89L280.597 234.103C278.121 238.834 274.848 242.768 270.777 245.903C266.761 248.984 262.58 251.157 258.234 252.422C253.943 253.688 249.404 254.32 244.618 254.32ZM224.814 200.435H264.506C263.57 196.474 261.15 193.228 257.244 190.698C253.393 188.167 249.239 186.902 244.783 186.902C240.107 186.902 235.734 188.195 231.663 190.78C227.592 193.311 225.309 196.529 224.814 200.435ZM324.382 254.485C318.715 254.485 313.049 253.385 307.383 251.185C301.716 248.984 296.573 245.821 291.952 241.695L298.058 224.448C302.019 228.739 306.392 231.93 311.179 234.021C315.965 236.056 320.311 237.074 324.217 237.074C328.508 237.074 331.451 236.496 333.046 235.341C334.697 234.131 335.522 232.288 335.522 229.812C335.522 228.382 334.477 227.144 332.386 226.099C330.351 224.998 326.5 223.541 320.833 221.725C315.002 219.8 310.739 218.122 308.043 216.691C298.196 211.905 293.272 204.754 293.272 195.236C293.272 187.424 296.243 181.043 302.184 176.092C308.125 171.141 315.745 168.665 325.042 168.665C335.219 168.665 344.517 172.103 352.934 178.98L348.23 196.392C339.923 190.505 332.194 187.562 325.042 187.562C321.356 187.562 318.44 188.277 316.295 189.708C314.149 191.083 313.077 192.871 313.077 195.071C313.077 197.217 314.534 198.95 317.45 200.27C320.036 201.535 323.529 202.938 327.93 204.479C336.842 207.394 343.554 210.888 348.065 214.958C352.576 218.974 354.831 223.926 354.831 229.812C354.831 237.624 352.163 243.703 346.827 248.049C341.491 252.34 334.009 254.485 324.382 254.485ZM432.944 168.5C441.967 168.5 449.201 171.388 454.647 177.165C460.093 182.941 462.816 190.588 462.816 200.105V253H443.92V200.435C443.92 195.759 443.039 192.348 441.279 190.203C439.518 188.002 436.795 186.902 433.109 186.902C429.369 186.902 426.425 188.112 424.28 190.533C422.134 192.953 421.062 196.254 421.062 200.435V253H402.165V200.27C402.165 191.358 398.561 186.902 391.355 186.902C388.054 186.902 385.303 188.195 383.103 190.78C380.902 193.366 379.802 196.529 379.802 200.27V253H360.905V168.5H379.307V170.893C383.103 169.298 387.119 168.5 391.355 168.5C399.772 168.5 406.703 171.361 412.15 177.082C417.431 171.361 424.362 168.5 432.944 168.5ZM508.994 254.32C497.772 254.32 488.282 250.194 480.525 241.942C472.823 233.69 468.972 223.568 468.972 211.575C468.972 199.472 472.796 189.295 480.443 181.043C488.145 172.791 497.662 168.61 508.994 168.5C516.696 168.5 523.793 170.646 530.284 174.937V168.5H548.934V253H530.284V247.966C523.903 252.202 516.806 254.32 508.994 254.32ZM508.829 235.918C514.936 235.918 519.997 233.608 524.013 228.987C528.084 224.366 530.119 218.562 530.119 211.575C530.119 204.589 528.084 198.785 524.013 194.164C519.997 189.542 514.936 187.232 508.829 187.232C502.778 187.232 497.689 189.57 493.563 194.246C489.437 198.867 487.374 204.644 487.374 211.575C487.374 218.507 489.437 224.311 493.563 228.987C497.689 233.608 502.778 235.918 508.829 235.918ZM566.23 157.03H566.065C562.929 157.03 560.289 155.957 558.143 153.812C555.998 151.501 554.925 148.86 554.925 145.89C554.925 142.809 556.053 140.141 558.308 137.885C560.454 135.74 563.094 134.667 566.23 134.667C569.256 134.667 571.841 135.74 573.987 137.885C576.132 139.866 577.205 142.534 577.205 145.89C577.205 149.025 576.132 151.666 573.987 153.812C571.841 155.957 569.256 157.03 566.23 157.03ZM575.885 253H556.988V168.5H575.885V253ZM623.3 254.32C612.078 254.32 602.588 250.194 594.831 241.942C587.129 233.69 583.279 223.568 583.279 211.575C583.279 199.472 587.102 189.295 594.749 181.043C602.451 172.791 611.968 168.61 623.3 168.5C631.002 168.5 638.099 170.646 644.591 174.937V168.5H663.24V253H644.591V247.966C638.209 252.202 631.112 254.32 623.3 254.32ZM623.135 235.918C629.242 235.918 634.303 233.608 638.319 228.987C642.39 224.366 644.425 218.562 644.425 211.575C644.425 204.589 642.39 198.785 638.319 194.164C634.303 189.542 629.242 187.232 623.135 187.232C617.084 187.232 611.995 189.57 607.869 194.246C603.743 198.867 601.68 204.644 601.68 211.575C601.68 218.507 603.743 224.311 607.869 228.987C611.995 233.608 617.084 235.918 623.135 235.918ZM711.646 254.32C699.433 254.32 689.311 249.974 681.279 241.282C673.247 232.59 669.231 221.863 669.231 209.1C669.231 202.113 670.936 195.566 674.347 189.46C677.813 183.299 682.819 178.265 689.366 174.359C695.967 170.453 703.394 168.5 711.646 168.5C720.393 168.5 728.287 170.866 735.329 175.597V134.667H755.216V253H735.494V247.224C728.287 251.955 720.338 254.32 711.646 254.32ZM711.976 234.598C717.917 234.598 722.979 232.59 727.16 228.574C731.341 224.558 733.734 219.58 734.339 213.638V208.357C733.734 202.471 731.313 197.547 727.077 193.586C722.896 189.57 717.862 187.562 711.976 187.562C705.539 187.562 700.176 189.845 695.885 194.411C691.649 198.922 689.531 204.424 689.531 210.915C689.531 217.572 691.649 223.183 695.885 227.749C700.176 232.315 705.539 234.598 711.976 234.598ZM802.88 254.485C791.162 254.485 781.287 250.359 773.255 242.107C765.278 233.8 761.29 223.623 761.29 211.575C761.29 203.653 763.105 196.419 766.736 189.873C770.367 183.271 775.373 178.1 781.755 174.359C788.136 170.563 795.178 168.665 802.88 168.665C810.526 168.665 817.513 170.563 823.839 174.359C830.221 178.155 835.227 183.354 838.858 189.955C842.489 196.502 844.304 203.708 844.304 211.575C844.304 219.442 842.489 226.676 838.858 233.278C835.227 239.824 830.221 244.996 823.839 248.792C817.513 252.587 810.526 254.485 802.88 254.485ZM803.045 235.093C809.371 235.093 814.652 232.81 818.888 228.244C823.179 223.678 825.325 218.012 825.325 211.245C825.325 204.534 823.179 198.922 818.888 194.411C814.652 189.845 809.371 187.562 803.045 187.562C796.553 187.562 791.134 189.818 786.788 194.329C782.497 198.84 780.352 204.479 780.352 211.245C780.352 218.122 782.497 223.816 786.788 228.327C791.134 232.838 796.553 235.093 803.045 235.093Z" fill="#4154F6"/>
<path d="M317.785 135H315.242L307.203 115.395H310.785L316.582 129.846L322.242 115.395H325.742L317.785 135ZM362.724 134.467C361.576 134.968 360.354 135.219 359.06 135.219C357.766 135.219 356.54 134.968 355.382 134.467C354.225 133.965 353.231 133.277 352.402 132.402C351.572 131.527 350.916 130.475 350.433 129.244C349.95 128.014 349.708 126.701 349.708 125.307C349.708 123.912 349.95 122.6 350.433 121.369C350.916 120.139 351.572 119.086 352.402 118.211C353.231 117.336 354.225 116.648 355.382 116.146C356.54 115.645 357.766 115.395 359.06 115.395C360.354 115.395 361.576 115.645 362.724 116.146C363.872 116.648 364.861 117.336 365.691 118.211C366.52 119.086 367.177 120.139 367.66 121.369C368.143 122.6 368.384 123.912 368.384 125.307C368.384 126.701 368.143 128.014 367.66 129.244C367.177 130.475 366.52 131.527 365.691 132.402C364.861 133.277 363.872 133.965 362.724 134.467ZM354.644 130.188C355.829 131.454 357.31 132.088 359.087 132.088C360.865 132.088 362.341 131.45 363.517 130.174C364.693 128.898 365.281 127.275 365.281 125.307C365.281 123.347 364.688 121.729 363.503 120.453C362.318 119.177 360.846 118.539 359.087 118.539C357.31 118.539 355.829 119.177 354.644 120.453C353.459 121.72 352.867 123.338 352.867 125.307C352.867 127.285 353.459 128.911 354.644 130.188ZM401.702 135.219C400.408 135.219 399.182 134.968 398.024 134.467C396.867 133.965 395.873 133.277 395.044 132.402C394.214 131.527 393.558 130.475 393.075 129.244C392.592 128.014 392.35 126.701 392.35 125.307C392.35 123.912 392.592 122.6 393.075 121.369C393.558 120.139 394.214 119.086 395.044 118.211C395.873 117.336 396.867 116.648 398.024 116.146C399.182 115.645 400.408 115.395 401.702 115.395C403.169 115.395 404.537 115.709 405.804 116.338C407.08 116.967 408.132 117.851 408.962 118.99L407.225 121.424C406.56 120.54 405.735 119.842 404.751 119.332C403.766 118.822 402.759 118.566 401.729 118.566C399.979 118.566 398.516 119.204 397.341 120.48C396.165 121.747 395.577 123.356 395.577 125.307C395.577 127.257 396.16 128.866 397.327 130.133C398.503 131.4 399.97 132.033 401.729 132.033C403.443 132.033 404.919 131.372 406.159 130.051L408.333 131.842C407.786 132.835 406.847 133.646 405.516 134.275C404.195 134.904 402.923 135.219 401.702 135.219ZM437.932 113.945H436.565L438.575 110.5H439.532L441.541 113.945H440.174L439.053 112.072L437.932 113.945ZM445.684 135H432.641V115.395H445.014V118.512H435.84V123.406H443.032V126.51H435.84V131.896H445.684V135ZM514.753 135H501.71V115.395H514.083V118.512H504.909V123.406H512.101V126.51H504.909V131.896H514.753V135ZM546.417 135.219C544.822 135.273 543.327 134.936 541.932 134.207C540.547 133.469 539.476 132.443 538.719 131.131L540.88 129.121C541.919 130.27 542.844 131.053 543.655 131.473C544.475 131.892 545.368 132.088 546.335 132.061C547.41 132.024 548.262 131.751 548.891 131.24C549.52 130.73 549.825 130.078 549.807 129.285C549.78 128.51 549.475 127.886 548.891 127.412C548.308 126.929 547.355 126.528 546.034 126.209C543.664 125.626 542.001 124.947 541.044 124.172C540.096 123.388 539.622 122.285 539.622 120.863C539.622 119.359 540.178 118.092 541.29 117.062C542.402 116.023 543.796 115.467 545.473 115.395C547.023 115.322 548.426 115.604 549.684 116.242C550.942 116.88 551.999 117.842 552.856 119.127L550.45 121.137C549.611 120.152 548.805 119.469 548.03 119.086C547.255 118.694 546.458 118.521 545.637 118.566C544.799 118.594 544.111 118.826 543.573 119.264C543.044 119.692 542.78 120.225 542.78 120.863C542.78 121.082 542.807 121.264 542.862 121.41C542.926 121.547 543.031 121.684 543.176 121.82C543.322 121.948 543.568 122.08 543.915 122.217C544.27 122.354 544.685 122.495 545.159 122.641C545.642 122.786 546.294 122.969 547.114 123.188C548.973 123.616 550.418 124.354 551.448 125.402C552.487 126.451 553.025 127.727 553.061 129.23C553.098 130.935 552.496 132.348 551.256 133.469C550.017 134.581 548.404 135.164 546.417 135.219ZM586.953 135H583.768V118.484H577.014V115.395H593.707V118.484H586.953V135ZM627.736 114.424H626.314L628.378 110.979H629.759L627.736 114.424ZM621.132 135H617.66L625.644 115.395H628.187L636.144 135H632.589L630.292 129.367H623.429L621.132 135ZM626.875 120.836L624.687 126.264H629.062L626.875 120.836Z" fill="white"/>
<defs>
<linearGradient id="paint0_linear_43_86" x1="469.988" y1="-2.10557e-05" x2="469.988" y2="197" gradientUnits="userSpaceOnUse">
<stop stop-color="#4154F6" stop-opacity="0.74"/>
<stop offset="1" stop-color="#1E213E" stop-opacity="0"/>
</linearGradient>
</defs>
</svg>
