<svg width="100" height="100" viewBox="0 0 100 100" fill="none" xmlns="http://www.w3.org/2000/svg">
<path fill-rule="evenodd" clip-rule="evenodd" d="M100 50C100 77.6142 77.6142 100 50 100C22.3858 100 0 77.6142 0 50C0 22.3858 22.3858 0 50 0C77.6142 0 100 22.3858 100 50ZM57.6107 19.7597L55.8932 59.5012H44.9493L43.2318 19.7597H57.6107ZM44.9493 67.09C43.5647 68.3682 42.8724 69.9658 42.8724 71.883C42.8724 73.8002 43.5647 75.4111 44.9493 76.7159C46.3339 77.994 48.1313 78.633 50.3414 78.633C52.5514 78.633 54.3355 77.994 55.6935 76.7159C57.0781 75.4111 57.7704 73.8002 57.7704 71.883C57.7704 69.9658 57.0781 68.3682 55.6935 67.09C54.3355 65.7853 52.5514 65.1329 50.3414 65.1329C48.1313 65.1329 46.3339 65.7853 44.9493 67.09Z" fill="url(#paint0_linear_231_18)"/>
<defs>
<linearGradient id="paint0_linear_231_18" x1="0" y1="50" x2="89.4072" y2="50" gradientUnits="userSpaceOnUse">
<stop stop-color="#EE811C"/>
<stop offset="1" stop-color="#FCB06A"/>
</linearGradient>
</defs>
</svg>
