<svg width="7" height="8" viewBox="0 0 7 8" fill="none" xmlns="http://www.w3.org/2000/svg">
<path fill-rule="evenodd" clip-rule="evenodd" d="M5.14724 2.64324L5.53019 1.93713C5.75246 1.52728 5.73727 1.03467 5.49012 0.638423C5.24296 0.242157 4.7999 0 4.32199 0H2.44683C1.96892 0 1.52583 0.242157 1.27868 0.638408C1.03153 1.03466 1.01634 1.52727 1.23862 1.93711L1.62157 2.64322C0.649775 3.21999 0 4.25831 0 5.44095C0 6.24192 0.301501 7.01314 0.848969 7.6125C1.07391 7.85875 1.3977 8 1.73733 8H5.03153C5.37116 8 5.69493 7.85877 5.91987 7.6125C6.46734 7.01312 6.76884 6.2419 6.76884 5.44095C6.76882 4.25832 6.11903 3.22001 5.14724 2.64324ZM4.44764 1.53716L4.0717 2.23033C3.8497 2.18579 3.61981 2.1623 3.38439 2.1623C3.14897 2.1623 2.91909 2.18577 2.69709 2.23033L2.32115 1.53716C2.27265 1.44772 2.27596 1.34021 2.32989 1.25372C2.38383 1.16725 2.48052 1.11439 2.58483 1.11439H4.18399C4.2883 1.11439 4.38499 1.16724 4.43893 1.25372C4.49285 1.34021 4.49617 1.44771 4.44764 1.53716ZM3.24228 6H3.52228L3.08628 5.21L3.46228 4.6H3.17828L2.94428 5.01L2.86228 5.174V4.6H2.62028V6H2.86228V5.564L2.94828 5.43L3.24228 6ZM4.43428 5.582C4.42828 5.866 4.27228 6.024 4.00828 6.024C3.74228 6.024 3.58028 5.866 3.58028 5.578V5.022C3.58028 4.732 3.74028 4.576 4.00828 4.576C4.26828 4.576 4.41628 4.732 4.42628 5.016H4.18028C4.17428 4.874 4.12028 4.814 4.00828 4.814C3.89628 4.814 3.83428 4.876 3.83428 5.022V5.578C3.83428 5.724 3.89828 5.786 4.01228 5.786C4.13028 5.786 4.19428 5.724 4.19428 5.582V5.446H4.00028V5.228H4.43428V5.582Z" fill="white"/>
</svg>
